<svg version="1" xmlns="http://www.w3.org/2000/svg" width="1333.333" height="1333.333" viewBox="0 0 1000.000000 1000.000000"><path d="M401.5 25.7c-13.2 1.1-29.1 3.8-36 6-10 3.3-41 16-50.7 20.9-9.4 4.8-18.5 10.9-33.9 23-19.9 15.7-24.5 20-39.1 36.8-14.6 16.9-19.4 24.5-22.4 35.6-2.3 8.7-3.8 11.5-9.4 18-10.8 12.6-14.3 18.8-22.6 40.4-8.9 22.7-10.2 28.3-13 56.1-3.7 35.8-3.3 44.1 4.1 79.5 6.1 29.4 8.8 38.8 17 60.1 8 20.4 12.3 26.8 51.4 76.3 11.7 14.8 23.4 30.1 26 34 2.7 3.9 7.5 10 10.6 13.6 8.6 9.5 13.1 17.1 25.8 43.1 16.6 33.9 27.7 50.8 49.5 75.8 5 5.7 9 10.7 8.7 11-.2.4-5.6 18.6-11.9 40.6-13 44.4-10.9 39.8-30.9 70-10.9 16.4-16.8 24-41.2 53.5-22.9 27.7-27 32.8-26.4 33.5.3.2 8.1 3.4 17.4 7 47.4 18.7 61.6 24.5 91 37.6 17.6 7.8 43.3 19 57 24.9 67.6 29.1 61.5 26.1 80.5 39.3l17.5 12.2 95 .3c52.2.1 95.6 0 96.3-.3 1.5-.5-.7-3.2-42.8-52-14.7-17.1-33.6-39.1-42.1-49-8.4-9.9-22-24.6-30.1-32.8-13.8-13.7-14.8-15-14.8-18.5 0-4.5 35.7-112.1 39.6-119.3 5.1-9.3 14.8-15.9 27.3-18.4 3.6-.8 19.7-1.9 35.6-2.5 57.7-2.2 72.5-5.8 88-21.5 7.8-7.8 13.1-17.2 14.4-25.5.6-3.5.1-9.7-1.5-21.2-3.7-25.6-3.5-26.8 6.4-40.6 7.2-10.1 6.8-18.2-.8-18.2-1.6 0-3.2-.5-3.5-1.1-.4-.6 3.1-5 7.8-9.8 4.7-4.8 8.9-9.9 9.2-11.3.5-2-.4-5-3.9-12-2.5-5.2-4.8-10.8-5.2-12.6-.7-3.6.3-4.8 14.3-16.4 8.7-7.1 15.3-15.1 17.2-20.7 1.5-4.6 1.4-12.5-.3-16.4-.7-1.8-3.7-5.4-6.6-7.9-6.3-5.5-31.8-36.4-32.6-39.5-.3-1.3 1-8.7 2.9-16.5 6-23.9 7.2-34.3 4.2-35.4-.8-.3-6.2.7-12 2.2-5.8 1.5-10.7 2.5-10.9 2.3-.3-.2.8-5 2.4-10.7 5.2-18.5 5.1-21.8-1.6-46.7-4.1-15-7.1-21.7-21.6-48.5-5.8-10.7-11.7-21.9-13.2-24.8-2.7-5.3-2.7-5.3-.4-4.1 1.3.7 4.1 2.4 6.3 3.9 7.9 5.4 8.2 5.4 10.2 1.8 2.6-4.9 3.2-34.5.8-45.9-4.5-22.2-17.2-50.5-30.6-68.4-20.4-27-46.3-47.4-81.6-64.2-20-9.5-67.3-24-85.5-26.1-3.5-.4-9.9-.4-14.3-.1-17.7 1.6-63.5 2.2-76.7 1.1-13.4-1.2-56.9-2.2-64.3-1.5zm368.9 353.9l10.9.6-.7 12.2c-.9 16.3-4.1 34.9-8.1 47.2-3.8 11.6-8.4 21.2-8.5 17.7 0-3.2 5.7-36.3 8.4-48l2.3-10.2-3.6-.5c-12.9-1.9-47.6-3.2-119.1-4.6-51.7-1-121.1-4.3-119.7-5.6.5-.5 74-5.7 103.7-7.4 46.1-2.7 101-3.2 134.4-1.4z"/></svg>