<?xml version="1.0" standalone="no"?>
<!DOCTYPE svg PUBLIC "-//W3C//DTD SVG 20010904//EN"
 "http://www.w3.org/TR/2001/REC-SVG-20010904/DTD/svg10.dtd">
<svg version="1.0" xmlns="http://www.w3.org/2000/svg"
 width="700.000000pt" height="700.000000pt" viewBox="0 0 700.000000 700.000000"
 preserveAspectRatio="xMidYMid meet">
<metadata>
Created by potrace 1.11, written by Peter Selinger 2001-2013
</metadata>
<g transform="translate(0.000000,700.000000) scale(0.100000,-0.100000)"
fill="#000000" stroke="none">
<path d="M2687 6804 c-43 -7 -101 -20 -130 -29 -86 -28 -338 -136 -399 -172
-49 -29 -209 -145 -244 -178 -7 -5 -31 -26 -54 -45 -24 -19 -46 -37 -49 -40
-3 -3 -52 -58 -109 -122 -94 -106 -161 -210 -162 -248 0 -24 -46 -113 -71
-140 -62 -66 -98 -127 -144 -245 -76 -199 -80 -212 -94 -345 -34 -313 -33
-378 9 -580 47 -228 70 -320 100 -395 4 -11 23 -58 41 -104 41 -107 91 -182
279 -421 85 -107 191 -244 237 -305 45 -60 101 -132 123 -160 22 -27 80 -129
128 -225 140 -280 218 -401 353 -550 38 -42 69 -82 69 -89 0 -7 -18 -74 -41
-149 -22 -76 -43 -146 -46 -157 -35 -132 -79 -267 -96 -295 -116 -190 -346
-499 -472 -634 -23 -24 -116 -149 -113 -151 4 -4 387 -155 393 -155 3 0 24 -9
48 -19 23 -11 130 -58 238 -104 108 -47 218 -95 245 -107 62 -28 71 -32 299
-130 365 -157 376 -163 503 -251 l117 -82 630 1 c346 0 650 1 673 1 l44 1 -53
62 c-30 35 -56 65 -59 68 -3 3 -33 37 -66 75 -32 39 -71 84 -85 100 -15 17
-48 55 -73 85 -26 30 -57 66 -70 80 -12 14 -74 86 -137 160 -130 154 -117 140
-266 293 -72 74 -113 124 -113 137 0 17 147 473 177 550 4 8 7 17 8 20 0 3 18
57 38 120 82 251 132 283 462 295 176 6 298 13 342 21 112 19 144 27 199 53
117 55 205 174 210 281 1 30 -4 91 -11 135 -21 132 -16 182 25 240 38 54 57
93 54 113 -1 6 -2 19 -3 27 0 9 -11 15 -25 15 -44 0 -39 20 23 85 34 35 61 72
61 83 0 11 -13 49 -30 84 -40 85 -39 109 7 144 130 102 184 172 188 244 3 51
-6 69 -71 136 -33 33 -95 104 -138 158 l-80 98 18 82 c9 44 20 90 22 101 13
48 27 175 21 181 -4 4 -41 0 -83 -10 -42 -9 -79 -14 -82 -11 -3 3 4 37 16 77
44 150 3 352 -116 568 -19 36 -52 97 -72 135 -21 39 -47 87 -59 109 -12 21
-21 42 -19 47 2 4 24 -5 50 -21 27 -17 52 -30 56 -30 22 0 30 56 28 196 -2
142 -4 154 -38 255 -89 259 -212 437 -422 608 -41 34 -77 61 -80 61 -3 0 -25
14 -50 31 -140 94 -413 205 -641 259 -49 12 -101 25 -115 28 -14 3 -81 4 -150
2 -169 -5 -452 -4 -765 2 -186 4 -282 1 -338 -8z m2745 -2461 l37 -5 -5 -82
c-2 -44 -6 -98 -9 -118 -3 -21 -8 -50 -10 -65 -8 -53 -33 -152 -43 -168 -4 -5
-7 -14 -8 -20 -2 -16 -46 -106 -50 -103 -3 4 39 254 60 353 8 38 14 71 13 72
-8 7 -268 19 -622 28 -468 11 -623 16 -690 20 -38 2 -124 7 -190 11 -168 9
-174 9 -181 17 -4 4 19 7 52 8 32 0 67 2 76 4 9 2 66 6 125 10 59 3 137 8 173
11 67 5 115 8 325 19 66 4 121 8 123 10 5 5 785 3 824 -2z"/>
</g>
</svg>
